<?xml version="1.0" standalone="no"?>
<!DOCTYPE svg PUBLIC "-//W3C//DTD SVG 20010904//EN"
 "http://www.w3.org/TR/2001/REC-SVG-20010904/DTD/svg10.dtd">
<svg version="1.0" xmlns="http://www.w3.org/2000/svg"
 width="200.000000pt" height="200.000000pt" viewBox="0 0 200.000000 200.000000"
 preserveAspectRatio="xMidYMid meet">

<g transform="translate(0.000000,200.000000) scale(0.100000,-0.100000)"
fill="#000000" stroke="none">
<path d="M0 1005 l0 -975 1000 0 1000 0 0 975 0 975 -1000 0 -1000 0 0 -975z
m1930 0 l0 -915 -930 0 -930 0 0 915 0 915 930 0 930 0 0 -915z"/>
<path d="M1203 1760 c-118 -39 -213 -154 -234 -282 -23 -140 59 -295 194 -365
47 -25 62 -28 152 -28 89 0 106 3 156 28 67 32 141 108 171 174 17 38 22 68
23 138 0 84 -2 94 -34 153 -69 127 -163 190 -294 198 -54 3 -87 -1 -134 -16z
m216 -46 c67 -20 132 -78 168 -153 24 -48 28 -68 28 -141 0 -74 -3 -91 -27
-131 -54 -91 -142 -150 -245 -164 l-53 -7 0 306 0 306 38 0 c21 0 62 -7 91
-16z"/>
<path d="M336 1744 c-11 -29 4 -34 95 -34 l89 0 0 -305 0 -305 155 0 155 0 0
305 0 305 89 0 c66 0 90 4 94 14 13 33 -14 36 -344 36 -290 0 -328 -2 -333
-16z"/>
<path d="M525 907 c-64 -22 -100 -44 -146 -90 -140 -140 -135 -365 13 -503 73
-68 125 -88 233 -89 77 0 98 4 146 26 31 15 75 43 98 64 49 45 98 141 107 213
l7 52 -172 0 c-161 0 -171 -1 -171 -19 0 -26 26 -31 168 -31 67 0 122 -1 122
-3 0 -2 -7 -27 -16 -56 -30 -103 -140 -188 -256 -199 l-58 -5 0 302 0 301 48
0 c64 -1 127 -31 189 -92 51 -50 83 -59 83 -23 0 27 -77 100 -137 130 -69 34
-190 44 -258 22z"/>
<path d="M1258 906 c-101 -36 -172 -100 -217 -196 -21 -45 -26 -70 -26 -135 0
-69 4 -89 32 -147 59 -124 162 -196 294 -206 154 -11 302 84 355 229 10 26 17
76 17 121 1 68 -3 84 -33 143 -42 83 -119 156 -195 184 -64 24 -170 27 -227 7z
m226 -56 c143 -54 223 -257 158 -402 -42 -96 -162 -178 -261 -178 l-38 0 -7
61 c-3 34 -6 142 -6 239 0 97 3 205 6 239 l7 61 43 0 c24 0 68 -9 98 -20z"/>
</g>
</svg>
